PathFileType	4	(X/Y/Z)	pose_F01_0-78.trc
DataRate	CameraRate	NumFrames	NumMarkers	Units	OrigDataRate	OrigDataStartFrame	OrigNumFrames
30	30	4	21	m	30	0	78
Frame#	Time	CHip			RHip			RKnee			RAnkle			RBigToe			RSmallToe			RHeel			LHip			LKnee			LAnkle			LBigToe			LSmallToe			LHeel			Neck			Nose			RShoulder			RElbow			RWrist			LShoulder			LElbow			LWrist			
		X1	Y1	Z1	X2	Y2	Z2	X3	Y3	Z3	X4	Y4	Z4	X5	Y5	Z5	X6	Y6	Z6	X7	Y7	Z7	X8	Y8	Z8	X9	Y9	Z9	X10	Y10	Z10	X11	Y11	Z11	X12	Y12	Z12	X13	Y13	Z13	X14	Y14	Z14	X15	Y15	Z15	X16	Y16	Z16	X17	Y17	Z17	X18	Y18	Z18	X19	Y19	Z19	X20	Y20	Z20	X21	Y21	Z21	
0	0.0	-0.23563727605844303	1.831420384654907	-0.5081205016567658	-0.24355027166338075	1.826553380110261	-0.43677730518007934	-0.24709838496007439	1.687853979268095	-0.4369323952683973	-0.24009572253952557	1.5402624868530925	-0.4318915648836199	-0.20260315497421974	1.5077461010071924	-0.48789073953490597	-0.21236333524637596	1.5034015444185478	-0.44922169865854455	-0.2507478024846034	1.5358063734466156	-0.42962849317463725	-0.22656569991340314	1.8318350599522337	-0.5702301357665492	-0.2214435866549377	1.7003542869828883	-0.5816165376832085	-0.22804334162932705	1.5814382189116332	-0.536134775518797	-0.20138636076793526	1.5281962759096166	-0.5750913818388599	-0.20087140509463536	1.5527886640925028	-0.6181789482774543	-0.2377256970971045	1.5313848939231451	-0.5149150161150474	-0.24416303561238073	1.9849328836237743	-0.5126093801930175	-0.21344497076707192	2.049321992229131	-0.571668104004557	-0.25487644960600625	1.9842529772182869	-0.41335303335989715	-0.24733146455093805	1.9042975792593162	-0.37379615700694047	-0.22129125093340643	1.8238943920536697	-0.37645744325640873	-0.23552078509809818	1.9890348917860037	-0.6021110590472059	-0.19911287674707748	1.963550445709429	-0.7130317974086202	-0.21528245388594322	2.036642761056746	-0.6584960459481083
1	0.03333333333333333	-0.2340692327539832	1.830800731267109	-0.504997692880505	-0.2399968218945108	1.8259250126409854	-0.435740755061948	-0.24250383748130164	1.6865117486885761	-0.4329684530723797	-0.23773606305108122	1.5406796656618271	-0.4349637187343037	-0.20251320746257565	1.5070339400550627	-0.4881268742088324	-0.21145242497482492	1.5041044131446295	-0.44592356074883815	-0.24874639775115445	1.53525083461718	-0.43216412360244083	-0.22518581768610849	1.8326846465856528	-0.5672033646489104	-0.21756818809250264	1.6993611658805436	-0.572881863275638	-0.2303551295440375	1.5746128650689994	-0.5365571788105886	-0.20170262242268	1.5264304704521547	-0.5785644190997741	-0.20316711184968822	1.546763138354934	-0.6145552254329185	-0.23651948116275404	1.5326004048886042	-0.5167016671492493	-0.24177066172673647	1.9883117620423483	-0.5061823148550788	-0.21330054848491412	2.0481948618488115	-0.5711545454702609	-0.25162172339799993	1.9872778768737842	-0.4121541307717355	-0.2436614579490514	1.9017552156968685	-0.3717542803167982	-0.2246776395899104	1.8235478007568526	-0.3759012162193577	-0.23051386498061588	1.9912612059232686	-0.5949147142538957	-0.1983063118377431	1.9648455091125565	-0.7101401023520013	-0.2086663944934736	2.037224050281088	-0.6554111293997371
2	0.06666666666666667	-0.23250118944952336	1.830181077879311	-0.5018748841042442	-0.23644337212564084	1.8252966451717099	-0.4347042049438166	-0.2379092900025289	1.6851695181090571	-0.4290045108763621	-0.23537640356263687	1.5410968444705617	-0.43803587258498744	-0.20242325995093155	1.506321779102933	-0.4883630088827588	-0.21054151470327387	1.5048072818707112	-0.44262542283913175	-0.24674499301770556	1.5346952957877444	-0.4346997540302444	-0.22380593545881383	1.8335342332190718	-0.5641765935312716	-0.21369278953006757	1.698368044778199	-0.5641471888680674	-0.23266691745874796	1.5677875112263657	-0.5369795821023803	-0.20201888407742474	1.5246646649946929	-0.5820374563606883	-0.20546281860474108	1.5407376126173653	-0.6109315025883827	-0.23531326522840357	1.5338159158540632	-0.5184883181834511	-0.23937828784109222	1.9916906404609223	-0.4997552495171401	-0.2131561262027563	2.047067731468492	-0.5706409869359648	-0.2483669971899936	1.9903027765292816	-0.4109552281835739	-0.23999145134716474	1.8992128521344207	-0.3697124036266559	-0.2280640282464144	1.8232012094600356	-0.37534498918230663	-0.22550694486313358	1.9934875200605335	-0.5877183694605856	-0.19749974692840874	1.966140572515684	-0.7072484072953824	-0.20205033510100398	2.0378053395054296	-0.6523262128513659
3	0.1	-0.2332438281978766	1.8296899911503446	-0.5015401790917376	-0.2372466730905305	1.824984457738267	-0.434373249586701	-0.2384069427995948	1.683381953699719	-0.4281803836976084	-0.23561875774395272	1.539743042898775	-0.4373915521991927	-0.20211526191988438	1.5051394779701002	-0.4889114895589565	-0.20935831486758036	1.501026681490124	-0.44778869482223904	-0.2465948232234447	1.533901943588771	-0.43458429531937504	-0.2242204818840299	1.8325945383221305	-0.5638619009523735	-0.21559844535997905	1.6924164346757598	-0.5569998479397922	-0.2349787053734584	1.560962157383732	-0.5374019853941719	-0.20233514573216949	1.522898859537231	-0.5855104936216025	-0.20775852535979394	1.5347120868797965	-0.6073077797438469	-0.2341070492940531	1.5350314268195222	-0.5202749692176529	-0.23861055256819802	1.988076858464732	-0.49620571523357115	-0.21222670818450284	2.045678220481681	-0.5670963442374873	-0.24935104038792247	1.9867197599410138	-0.40520886093251574	-0.23648186060765763	1.8945198022474947	-0.3733706128836156	-0.22086338066412212	1.8129814160505022	-0.387361778974623	-0.22568592322573575	1.9898164465878234	-0.5872178171653496	-0.19743711689724203	1.9648084139830737	-0.7068574065532671	-0.20682296959021504	2.038570101536557	-0.6496744230332953
